<svg width="300" height="42" viewBox="0 0 300 42" fill="none" xmlns="http://www.w3.org/2000/svg">
<path d="M23.4663 9.65931V33.5H20.1967V30.1282C18.5846 32.5577 15.9962 33.7725 12.4315 33.7725C9.59328 33.7725 7.36815 32.9097 5.75607 31.184C4.16669 29.4584 3.372 26.9949 3.372 23.7934V9.65931H6.77781V23.6913C6.77781 25.9845 7.34545 27.7328 8.48072 28.9362C9.61599 30.1396 11.1713 30.7413 13.1467 30.7413C15.281 30.7413 16.9725 30.1055 18.2213 28.834C19.4701 27.5625 20.0945 25.678 20.0945 23.1804V9.65931H23.4663ZM47.1689 8.22887V33.5H44.0355V30.6391C43.309 31.6382 42.3894 32.3988 41.2768 32.921C40.1643 33.4432 38.9382 33.7043 37.5985 33.7043C35.8502 33.7043 34.2836 33.3184 32.8985 32.5464C31.5135 31.7744 30.4236 30.6959 29.6289 29.3109C28.857 27.9031 28.471 26.291 28.471 24.4746C28.471 22.6582 28.857 21.0574 29.6289 19.6724C30.4236 18.2874 31.5135 17.2089 32.8985 16.4369C34.2836 15.6649 35.8502 15.2789 37.5985 15.2789C38.8928 15.2789 40.0848 15.5287 41.1747 16.0282C42.2645 16.505 43.1727 17.2202 43.8993 18.1738V8.22887H47.1689ZM37.871 30.8435C39.0063 30.8435 40.0394 30.5824 40.9703 30.0601C41.9012 29.5152 42.6278 28.7659 43.15 27.8123C43.6722 26.836 43.9334 25.7234 43.9334 24.4746C43.9334 23.2258 43.6722 22.1246 43.15 21.171C42.6278 20.1946 41.9012 19.4453 40.9703 18.9231C40.0394 18.4009 39.0063 18.1398 37.871 18.1398C36.713 18.1398 35.6686 18.4009 34.7377 18.9231C33.8294 19.4453 33.1029 20.1946 32.5579 21.171C32.0357 22.1246 31.7746 23.2258 31.7746 24.4746C31.7746 25.7234 32.0357 26.836 32.5579 27.8123C33.1029 28.7659 33.8294 29.5152 34.7377 30.0601C35.6686 30.5824 36.713 30.8435 37.871 30.8435ZM53.3552 15.4492H56.6248V33.5H53.3552V15.4492ZM54.99 11.9753C54.3543 11.9753 53.8207 11.7709 53.3893 11.3622C52.9806 10.9535 52.7762 10.454 52.7762 9.86366C52.7762 9.27332 52.9806 8.7738 53.3893 8.36511C53.8207 7.9337 54.3543 7.718 54.99 7.718C55.6258 7.718 56.148 7.92235 56.5567 8.33105C56.9881 8.71704 57.2038 9.20521 57.2038 9.79555C57.2038 10.4086 56.9881 10.9308 56.5567 11.3622C56.148 11.7709 55.6258 11.9753 54.99 11.9753ZM72.506 15.2789C74.7992 15.2789 76.6157 15.9487 77.9553 17.2883C79.3176 18.6052 79.9988 20.5466 79.9988 23.1123V33.5H76.7292V23.4869C76.7292 21.7386 76.3091 20.4217 75.469 19.5362C74.6289 18.6507 73.4256 18.2079 71.8589 18.2079C70.0879 18.2079 68.6915 18.7301 67.6697 19.7746C66.648 20.7963 66.1371 22.2722 66.1371 24.2021V33.5H62.8675V15.4492H66.0009V18.1738C66.6593 17.2429 67.5449 16.5277 68.6574 16.0282C69.7927 15.5287 71.0755 15.2789 72.506 15.2789ZM95.62 15.2789C97.3683 15.2789 98.935 15.6649 100.32 16.4369C101.705 17.2089 102.784 18.2874 103.556 19.6724C104.35 21.0574 104.748 22.6582 104.748 24.4746C104.748 26.291 104.35 27.9031 103.556 29.3109C102.784 30.6959 101.705 31.7744 100.32 32.5464C98.935 33.3184 97.3683 33.7043 95.62 33.7043C94.3258 33.7043 93.1338 33.4546 92.0439 32.9551C90.9768 32.4556 90.0685 31.729 89.3193 30.7754V40.1073H86.0497V15.4492H89.183V18.3101C89.9096 17.311 90.8292 16.5618 91.9417 16.0622C93.0543 15.54 94.2804 15.2789 95.62 15.2789ZM95.3476 30.8435C96.5055 30.8435 97.5386 30.5824 98.4468 30.0601C99.3778 29.5152 100.104 28.7659 100.627 27.8123C101.171 26.836 101.444 25.7234 101.444 24.4746C101.444 23.2258 101.171 22.1246 100.627 21.171C100.104 20.1946 99.3778 19.4453 98.4468 18.9231C97.5386 18.4009 96.5055 18.1398 95.3476 18.1398C94.2123 18.1398 93.1792 18.4123 92.2483 18.9572C91.34 19.4794 90.6135 20.2173 90.0685 21.171C89.5463 22.1246 89.2852 23.2258 89.2852 24.4746C89.2852 25.7234 89.5463 26.836 90.0685 27.8123C90.5908 28.7659 91.3173 29.5152 92.2483 30.0601C93.1792 30.5824 94.2123 30.8435 95.3476 30.8435ZM118.904 15.2789C121.197 15.2789 123.013 15.9487 124.353 17.2883C125.715 18.6052 126.396 20.5466 126.396 23.1123V33.5H123.127V23.4869C123.127 21.7386 122.707 20.4217 121.867 19.5362C121.026 18.6507 119.823 18.2079 118.256 18.2079C116.485 18.2079 115.089 18.7301 114.067 19.7746C113.046 20.7963 112.535 22.2722 112.535 24.2021V33.5H109.265V8.22887H112.535V18.0036C113.216 17.1407 114.101 16.4709 115.191 15.9941C116.304 15.5173 117.541 15.2789 118.904 15.2789ZM143.686 33.7725C141.28 33.7725 139.111 33.2502 137.181 32.2058C135.251 31.1386 133.73 29.6741 132.618 27.8123C131.528 25.9504 130.983 23.8729 130.983 21.5797C130.983 19.2864 131.528 17.2089 132.618 15.347C133.73 13.4852 135.251 12.032 137.181 10.9876C139.111 9.92043 141.28 9.38685 143.686 9.38685C146.07 9.38685 148.227 9.92043 150.157 10.9876C152.087 12.032 153.597 13.4852 154.687 15.347C155.777 17.1862 156.322 19.2637 156.322 21.5797C156.322 23.8956 155.777 25.9845 154.687 27.8464C153.597 29.6855 152.087 31.1386 150.157 32.2058C148.227 33.2502 146.07 33.7725 143.686 33.7725ZM143.686 30.7413C145.435 30.7413 147.001 30.3439 148.386 29.5493C149.794 28.7546 150.895 27.6647 151.69 26.2797C152.507 24.8719 152.916 23.3053 152.916 21.5797C152.916 19.854 152.507 18.2987 151.69 16.9137C150.895 15.506 149.794 14.4047 148.386 13.6101C147.001 12.8154 145.435 12.418 143.686 12.418C141.938 12.418 140.349 12.8154 138.918 13.6101C137.511 14.4047 136.398 15.506 135.581 16.9137C134.786 18.2987 134.389 19.854 134.389 21.5797C134.389 23.3053 134.786 24.8719 135.581 26.2797C136.398 27.6647 137.511 28.7546 138.918 29.5493C140.349 30.3439 141.938 30.7413 143.686 30.7413ZM170.553 32.4442C170.076 32.8529 169.486 33.1708 168.782 33.3978C168.078 33.6022 167.351 33.7043 166.602 33.7043C164.786 33.7043 163.378 33.2162 162.379 32.2398C161.38 31.2635 160.88 29.8671 160.88 28.0507V11.4985H164.15V15.4492H169.327V18.1398H164.15V27.9145C164.15 28.8908 164.388 29.6401 164.865 30.1623C165.365 30.6845 166.069 30.9456 166.977 30.9456C167.976 30.9456 168.827 30.6618 169.531 30.0942L170.553 32.4442ZM181.62 33.7043C179.827 33.7043 178.214 33.307 176.784 32.5123C175.354 31.7176 174.23 30.6278 173.412 29.2427C172.618 27.835 172.22 26.2456 172.22 24.4746C172.22 22.7036 172.618 21.1255 173.412 19.7405C174.23 18.3328 175.354 17.2429 176.784 16.4709C178.214 15.6762 179.827 15.2789 181.62 15.2789C183.414 15.2789 185.015 15.6762 186.422 16.4709C187.853 17.2429 188.965 18.3328 189.76 19.7405C190.578 21.1255 190.986 22.7036 190.986 24.4746C190.986 26.2456 190.578 27.835 189.76 29.2427C188.965 30.6278 187.853 31.7176 186.422 32.5123C185.015 33.307 183.414 33.7043 181.62 33.7043ZM181.62 30.8435C182.778 30.8435 183.811 30.5824 184.72 30.0601C185.65 29.5152 186.377 28.7659 186.899 27.8123C187.421 26.836 187.683 25.7234 187.683 24.4746C187.683 23.2258 187.421 22.1246 186.899 21.171C186.377 20.1946 185.65 19.4453 184.72 18.9231C183.811 18.4009 182.778 18.1398 181.62 18.1398C180.462 18.1398 179.418 18.4009 178.487 18.9231C177.579 19.4453 176.852 20.1946 176.307 21.171C175.785 22.1246 175.524 23.2258 175.524 24.4746C175.524 25.7234 175.785 26.836 176.307 27.8123C176.852 28.7659 177.579 29.5152 178.487 30.0601C179.418 30.5824 180.462 30.8435 181.62 30.8435ZM212.775 15.4492V31.0478C212.775 34.2039 211.992 36.5312 210.425 38.0297C208.859 39.551 206.52 40.3116 203.409 40.3116C201.707 40.3116 200.083 40.0732 198.539 39.5964C196.995 39.1423 195.746 38.4838 194.793 37.621L196.359 35.1007C197.2 35.8273 198.233 36.3949 199.459 36.8036C200.708 37.235 201.99 37.4507 203.307 37.4507C205.419 37.4507 206.974 36.9512 207.973 35.9522C208.995 34.9531 209.506 33.4319 209.506 31.3884V29.958C208.734 30.8889 207.78 31.5927 206.645 32.0696C205.532 32.5237 204.318 32.7507 203.001 32.7507C201.275 32.7507 199.708 32.3874 198.301 31.6609C196.916 30.9116 195.826 29.8785 195.031 28.5616C194.236 27.222 193.839 25.7007 193.839 23.9978C193.839 22.2949 194.236 20.785 195.031 19.4681C195.826 18.1284 196.916 17.0953 198.301 16.3688C199.708 15.6422 201.275 15.2789 203.001 15.2789C204.363 15.2789 205.623 15.5287 206.781 16.0282C207.962 16.5277 208.927 17.2656 209.676 18.242V15.4492H212.775ZM203.375 29.8898C204.556 29.8898 205.612 29.6401 206.543 29.1406C207.496 28.641 208.234 27.9485 208.757 27.063C209.302 26.1548 209.574 25.1331 209.574 23.9978C209.574 22.2495 208.995 20.8417 207.837 19.7746C206.679 18.6847 205.192 18.1398 203.375 18.1398C201.536 18.1398 200.038 18.6847 198.88 19.7746C197.722 20.8417 197.143 22.2495 197.143 23.9978C197.143 25.1331 197.404 26.1548 197.926 27.063C198.471 27.9485 199.209 28.641 200.14 29.1406C201.093 29.6401 202.172 29.8898 203.375 29.8898ZM222.156 18.4804C222.724 17.4359 223.564 16.6412 224.676 16.0963C225.789 15.5514 227.14 15.2789 228.729 15.2789V18.4463C228.548 18.4236 228.298 18.4123 227.98 18.4123C226.209 18.4123 224.813 18.9458 223.791 20.013C222.792 21.0574 222.292 22.556 222.292 24.5087V33.5H219.023V15.4492H222.156V18.4804ZM249.622 15.4492V33.5H246.488V30.6391C245.762 31.6382 244.842 32.3988 243.73 32.921C242.617 33.4432 241.391 33.7043 240.051 33.7043C238.303 33.7043 236.736 33.3184 235.351 32.5464C233.966 31.7744 232.877 30.6959 232.082 29.3109C231.31 27.9031 230.924 26.291 230.924 24.4746C230.924 22.6582 231.31 21.0574 232.082 19.6724C232.877 18.2874 233.966 17.2089 235.351 16.4369C236.736 15.6649 238.303 15.2789 240.051 15.2789C241.346 15.2789 242.538 15.5287 243.628 16.0282C244.717 16.505 245.626 17.2202 246.352 18.1738V15.4492H249.622ZM240.324 30.8435C241.459 30.8435 242.492 30.5824 243.423 30.0601C244.354 29.5152 245.081 28.7659 245.603 27.8123C246.125 26.836 246.386 25.7234 246.386 24.4746C246.386 23.2258 246.125 22.1246 245.603 21.171C245.081 20.1946 244.354 19.4453 243.423 18.9231C242.492 18.4009 241.459 18.1398 240.324 18.1398C239.166 18.1398 238.121 18.4009 237.191 18.9231C236.282 19.4453 235.556 20.1946 235.011 21.171C234.489 22.1246 234.228 23.2258 234.228 24.4746C234.228 25.7234 234.489 26.836 235.011 27.8123C235.556 28.7659 236.282 29.5152 237.191 30.0601C238.121 30.5824 239.166 30.8435 240.324 30.8435ZM265.378 15.2789C267.127 15.2789 268.693 15.6649 270.078 16.4369C271.464 17.2089 272.542 18.2874 273.314 19.6724C274.109 21.0574 274.506 22.6582 274.506 24.4746C274.506 26.291 274.109 27.9031 273.314 29.3109C272.542 30.6959 271.464 31.7744 270.078 32.5464C268.693 33.3184 267.127 33.7043 265.378 33.7043C264.084 33.7043 262.892 33.4546 261.802 32.9551C260.735 32.4556 259.827 31.729 259.078 30.7754V40.1073H255.808V15.4492H258.941V18.3101C259.668 17.311 260.588 16.5618 261.7 16.0622C262.813 15.54 264.039 15.2789 265.378 15.2789ZM265.106 30.8435C266.264 30.8435 267.297 30.5824 268.205 30.0601C269.136 29.5152 269.863 28.7659 270.385 27.8123C270.93 26.836 271.202 25.7234 271.202 24.4746C271.202 23.2258 270.93 22.1246 270.385 21.171C269.863 20.1946 269.136 19.4453 268.205 18.9231C267.297 18.4009 266.264 18.1398 265.106 18.1398C263.971 18.1398 262.938 18.4123 262.007 18.9572C261.098 19.4794 260.372 20.2173 259.827 21.171C259.305 22.1246 259.044 23.2258 259.044 24.4746C259.044 25.7234 259.305 26.836 259.827 27.8123C260.349 28.7659 261.076 29.5152 262.007 30.0601C262.938 30.5824 263.971 30.8435 265.106 30.8435ZM288.662 15.2789C290.955 15.2789 292.772 15.9487 294.111 17.2883C295.474 18.6052 296.155 20.5466 296.155 23.1123V33.5H292.885V23.4869C292.885 21.7386 292.465 20.4217 291.625 19.5362C290.785 18.6507 289.582 18.2079 288.015 18.2079C286.244 18.2079 284.847 18.7301 283.826 19.7746C282.804 20.7963 282.293 22.2722 282.293 24.2021V33.5H279.024V8.22887H282.293V18.0036C282.974 17.1407 283.86 16.4709 284.95 15.9941C286.062 15.5173 287.3 15.2789 288.662 15.2789Z" fill="white"/>
<path d="M142.875 3.69873C142.875 3.69873 141.864 14.4152 146.082 18.6332C150.3 22.8513 161.017 21.8402 161.017 21.8402C161.017 21.8402 150.3 20.8292 146.082 25.0472C141.864 29.2653 142.875 39.9817 142.875 39.9817C142.875 39.9817 143.886 29.2653 139.668 25.0472C135.45 20.8292 124.734 21.8402 124.734 21.8402C124.734 21.8402 135.45 22.8513 139.668 18.6332C143.886 14.4152 142.875 3.69873 142.875 3.69873Z" fill="white"/>
</svg>
